<svg xmlns="http://www.w3.org/2000/svg" xmlns:xlink="http://www.w3.org/1999/xlink" width="2000" zoomAndPan="magnify" viewBox="0 0 1500 396.749985" height="529" preserveAspectRatio="xMidYMid meet" version="1.0"><defs><g/><clipPath id="d2e81e3360"><path d="M 0.472656 0 L 1499.527344 0 L 1499.527344 396.5 L 0.472656 396.5 Z M 0.472656 0 " clip-rule="nonzero"/></clipPath><clipPath id="8fe2af03a5"><path d="M 0.121094 72.800781 L 1420 72.800781 L 1420 311.941406 L 0.121094 311.941406 Z M 0.121094 72.800781 " clip-rule="nonzero"/></clipPath><clipPath id="775fe0dd71"><path d="M 18.859375 72.800781 L 1401.140625 72.800781 C 1406.109375 72.800781 1410.875 74.777344 1414.390625 78.289062 C 1417.902344 81.804688 1419.878906 86.570312 1419.878906 91.539062 L 1419.878906 293.203125 C 1419.878906 298.171875 1417.902344 302.941406 1414.390625 306.453125 C 1410.875 309.96875 1406.109375 311.941406 1401.140625 311.941406 L 18.859375 311.941406 C 13.890625 311.941406 9.125 309.96875 5.609375 306.453125 C 2.097656 302.941406 0.121094 298.171875 0.121094 293.203125 L 0.121094 91.539062 C 0.121094 86.570312 2.097656 81.804688 5.609375 78.289062 C 9.125 74.777344 13.890625 72.800781 18.859375 72.800781 Z M 18.859375 72.800781 " clip-rule="nonzero"/></clipPath><clipPath id="fdd4e8ec27"><path d="M 0.121094 0.800781 L 1419.953125 0.800781 L 1419.953125 239.941406 L 0.121094 239.941406 Z M 0.121094 0.800781 " clip-rule="nonzero"/></clipPath><clipPath id="22a0e88883"><path d="M 18.859375 0.800781 L 1401.140625 0.800781 C 1406.109375 0.800781 1410.875 2.777344 1414.390625 6.289062 C 1417.902344 9.804688 1419.878906 14.570312 1419.878906 19.539062 L 1419.878906 221.203125 C 1419.878906 226.171875 1417.902344 230.941406 1414.390625 234.453125 C 1410.875 237.96875 1406.109375 239.941406 1401.140625 239.941406 L 18.859375 239.941406 C 13.890625 239.941406 9.125 237.96875 5.609375 234.453125 C 2.097656 230.941406 0.121094 226.171875 0.121094 221.203125 L 0.121094 19.539062 C 0.121094 14.570312 2.097656 9.804688 5.609375 6.289062 C 9.125 2.777344 13.890625 0.800781 18.859375 0.800781 Z M 18.859375 0.800781 " clip-rule="nonzero"/></clipPath><clipPath id="80a4b50524"><rect x="0" width="1420" y="0" height="240"/></clipPath><clipPath id="0c5872e5ac"><rect x="0" width="1421" y="0" height="386"/></clipPath></defs><g clip-path="url(#d2e81e3360)"><path fill="#ffffff" d="M 0.472656 0 L 1499.527344 0 L 1499.527344 396.5 L 0.472656 396.5 Z M 0.472656 0 " fill-opacity="1" fill-rule="nonzero"/><path fill="#ffffff" d="M 0.472656 0 L 1499.527344 0 L 1499.527344 396.5 L 0.472656 396.5 Z M 0.472656 0 " fill-opacity="1" fill-rule="nonzero"/></g><g transform="matrix(1, 0, 0, 1, 40, 5)"><g clip-path="url(#0c5872e5ac)"><g clip-path="url(#8fe2af03a5)"><g clip-path="url(#775fe0dd71)"><g transform="matrix(1, 0, 0, 1, 0, 72)"><g clip-path="url(#80a4b50524)"><g clip-path="url(#fdd4e8ec27)"><g clip-path="url(#22a0e88883)"><path fill="#6c0ef1" d="M 0.121094 0.800781 L 1420.015625 0.800781 L 1420.015625 239.941406 L 0.121094 239.941406 Z M 0.121094 0.800781 " fill-opacity="1" fill-rule="nonzero"/></g></g></g></g></g></g><g fill="#6c0ef1" fill-opacity="1"><g transform="translate(272.699803, 288.93013)"><g><path d="M 144.0625 -121.339844 C 160.679688 -117.585938 173.972656 -109.222656 183.945312 -96.246094 C 193.71875 -83.523438 198.609375 -69.042969 198.609375 -52.796875 C 198.609375 -41.417969 196.558594 -31.0625 192.457031 -21.734375 C 188.183594 -12.023438 181.835938 -3.699219 173.410156 3.230469 C 157.921875 15.972656 137.238281 22.34375 111.367188 22.34375 L -6.945312 22.34375 L -6.945312 -216.207031 L 108.34375 -216.207031 C 133.265625 -216.207031 153.386719 -210.230469 168.699219 -198.277344 C 177.214844 -191.632812 183.636719 -183.554688 187.96875 -174.046875 C 192.128906 -164.917969 194.207031 -154.75 194.207031 -143.542969 C 194.207031 -127.039062 189.644531 -112.957031 180.519531 -101.304688 C 171.539062 -89.839844 159.742188 -82.078125 145.121094 -78.015625 L 139.140625 -99.542969 Z M 134.222656 -77.75 L 133.164062 -121.070312 C 138.339844 -122.511719 142.398438 -125.105469 145.335938 -128.855469 C 148.128906 -132.417969 149.523438 -137.3125 149.523438 -143.542969 C 149.523438 -148.285156 148.785156 -152.277344 147.304688 -155.523438 C 146 -158.386719 143.964844 -160.898438 141.207031 -163.050781 C 133.972656 -168.699219 123.019531 -171.519531 108.34375 -171.519531 L 15.398438 -171.519531 L 15.398438 -193.863281 L 37.742188 -193.863281 L 37.742188 0 L 15.398438 0 L 15.398438 -22.34375 L 111.367188 -22.34375 C 126.5625 -22.34375 137.78125 -25.320312 145.023438 -31.28125 C 147.960938 -33.699219 150.136719 -36.511719 151.550781 -39.722656 C 153.132812 -43.320312 153.921875 -47.675781 153.921875 -52.796875 C 153.921875 -58.917969 152.117188 -64.324219 148.511719 -69.019531 C 145.101562 -73.457031 140.335938 -76.371094 134.222656 -77.75 Z M 69.296875 -139.210938 L 96.519531 -139.210938 C 97.902344 -139.210938 98.894531 -139.292969 99.503906 -139.460938 C 98.976562 -139.316406 98.332031 -138.929688 97.570312 -138.300781 C 96.347656 -137.296875 95.453125 -136.085938 94.882812 -134.679688 C 94.710938 -134.253906 94.59375 -133.871094 94.535156 -133.527344 C 94.527344 -133.46875 94.519531 -133.433594 94.519531 -133.414062 C 94.523438 -133.46875 94.527344 -133.542969 94.527344 -133.640625 C 94.527344 -133.84375 94.523438 -133.964844 94.515625 -134.003906 C 94.558594 -133.742188 94.652344 -133.433594 94.792969 -133.074219 C 95.308594 -131.757812 96.144531 -130.605469 97.296875 -129.621094 C 98.070312 -128.964844 98.746094 -128.554688 99.324219 -128.390625 C 98.773438 -128.546875 97.839844 -128.625 96.519531 -128.625 L 69.296875 -128.625 L 69.296875 -150.964844 L 91.640625 -150.964844 L 91.640625 -116.867188 L 69.296875 -116.867188 Z M 46.953125 -94.527344 L 46.953125 -173.308594 L 96.519531 -173.308594 C 108.785156 -173.308594 118.699219 -170.089844 126.265625 -163.648438 C 130.808594 -159.777344 134.1875 -155.019531 136.402344 -149.367188 C 138.273438 -144.582031 139.210938 -139.34375 139.210938 -133.640625 C 139.210938 -127.949219 138.246094 -122.710938 136.308594 -117.929688 C 134.042969 -112.328125 130.605469 -107.625 125.992188 -103.820312 C 118.476562 -97.625 108.648438 -94.527344 96.519531 -94.527344 Z M 100.644531 -65.789062 C 101.996094 -65.789062 102.960938 -65.871094 103.535156 -66.03125 C 102.984375 -65.878906 102.324219 -65.480469 101.558594 -64.835938 C 100.371094 -63.839844 99.503906 -62.660156 98.960938 -61.296875 C 98.804688 -60.90625 98.703125 -60.558594 98.648438 -60.257812 L 98.640625 -60.203125 C 98.648438 -60.28125 98.648438 -60.378906 98.648438 -60.496094 C 98.648438 -60.6875 98.648438 -60.800781 98.640625 -60.839844 C 98.679688 -60.601562 98.765625 -60.324219 98.894531 -60.003906 C 99.332031 -58.898438 100.019531 -57.941406 100.949219 -57.128906 C 101.554688 -56.601562 102.101562 -56.265625 102.589844 -56.113281 C 102.179688 -56.238281 101.4375 -56.300781 100.371094 -56.300781 L 69.296875 -56.300781 L 69.296875 -78.644531 L 91.640625 -78.644531 L 91.640625 -43.449219 L 69.296875 -43.449219 L 69.296875 -65.789062 Z M 100.644531 -21.105469 L 46.953125 -21.105469 L 46.953125 -100.988281 L 100.371094 -100.988281 C 112.550781 -100.988281 122.53125 -97.597656 130.3125 -90.8125 C 134.820312 -86.882812 138.183594 -82.121094 140.410156 -76.527344 C 142.359375 -71.628906 143.335938 -66.285156 143.335938 -60.496094 C 143.335938 -54.800781 142.382812 -49.5625 140.480469 -44.777344 C 138.242188 -39.152344 134.835938 -34.421875 130.253906 -30.582031 C 122.710938 -24.265625 112.84375 -21.105469 100.644531 -21.105469 Z M 100.644531 -21.105469 "/></g></g></g><g fill="#6c0ef1" fill-opacity="1"><g transform="translate(457.214024, 288.93013)"><g><path d="M 90.539062 -193.863281 L 90.539062 -81.394531 C 90.539062 -78.363281 90.828125 -75.882812 91.410156 -73.949219 C 91.722656 -72.917969 92.074219 -72.171875 92.464844 -71.714844 C 92.441406 -71.746094 92.40625 -71.773438 92.371094 -71.800781 C 92.421875 -71.765625 92.527344 -71.714844 92.691406 -71.652344 C 93.796875 -71.226562 95.4375 -71.015625 97.621094 -71.015625 C 99.789062 -71.015625 101.449219 -71.234375 102.59375 -71.679688 C 102.894531 -71.796875 103.097656 -71.914062 103.199219 -72.027344 C 104.566406 -73.59375 105.25 -76.714844 105.25 -81.394531 L 105.25 -216.207031 L 203.832031 -216.207031 L 203.832031 -81.394531 C 203.832031 -59.496094 199.015625 -40.5 189.386719 -24.410156 C 179.601562 -8.066406 166.265625 4.242188 149.375 12.507812 C 133.351562 20.347656 115.734375 24.269531 96.519531 24.269531 C 77.167969 24.269531 59.707031 20.289062 44.140625 12.332031 C 27.785156 3.972656 14.980469 -8.382812 5.71875 -24.738281 C -3.273438 -40.621094 -7.769531 -59.503906 -7.769531 -81.394531 L -7.769531 -216.207031 L 90.539062 -216.207031 Z M 45.851562 -193.863281 L 68.195312 -193.863281 L 68.195312 -171.519531 L 14.574219 -171.519531 L 14.574219 -193.863281 L 36.917969 -193.863281 L 36.917969 -81.394531 C 36.917969 -67.355469 39.480469 -55.808594 44.605469 -46.757812 C 49.460938 -38.179688 56.085938 -31.746094 64.476562 -27.457031 C 73.660156 -22.765625 84.339844 -20.417969 96.519531 -20.417969 C 108.835938 -20.417969 119.90625 -22.820312 129.734375 -27.628906 C 138.691406 -32.015625 145.796875 -38.589844 151.042969 -47.359375 C 156.445312 -56.386719 159.148438 -67.730469 159.148438 -81.394531 L 159.148438 -193.863281 L 181.488281 -193.863281 L 181.488281 -171.519531 L 127.59375 -171.519531 L 127.59375 -193.863281 L 149.9375 -193.863281 L 149.9375 -81.394531 C 149.9375 -65.542969 145.578125 -52.625 136.863281 -42.640625 C 131.921875 -36.980469 125.867188 -32.765625 118.703125 -29.996094 C 112.375 -27.550781 105.347656 -26.328125 97.621094 -26.328125 C 89.902344 -26.328125 82.90625 -27.539062 76.632812 -29.953125 C 69.421875 -32.730469 63.378906 -36.972656 58.5 -42.679688 C 50.070312 -52.542969 45.851562 -65.445312 45.851562 -81.394531 Z M 45.851562 -193.863281 "/></g></g></g><g fill="#6c0ef1" fill-opacity="1"><g transform="translate(653.002562, 288.93013)"><g><path d="M 116.320312 -177.984375 C 128.203125 -177.984375 139.054688 -175.929688 148.875 -171.816406 C 159.078125 -167.539062 167.921875 -161.167969 175.40625 -152.699219 C 189.589844 -136.652344 196.683594 -115.722656 196.683594 -89.917969 L 196.683594 22.34375 L 98.101562 22.34375 L 98.101562 -82.769531 C 98.101562 -84.769531 97.90625 -86.355469 97.515625 -87.535156 C 97.363281 -87.996094 97.203125 -88.320312 97.035156 -88.503906 L 97.042969 -88.535156 C 96.6875 -88.679688 96.054688 -88.75 95.144531 -88.75 C 93.96875 -88.75 93.128906 -88.648438 92.625 -88.449219 C 92.65625 -88.460938 92.683594 -88.480469 92.703125 -88.503906 C 92.535156 -88.320312 92.378906 -87.996094 92.226562 -87.535156 C 91.835938 -86.355469 91.640625 -84.769531 91.640625 -82.769531 L 91.640625 22.34375 L -6.945312 22.34375 L -6.945312 -176.609375 L 91.640625 -176.609375 L 91.640625 -132.265625 L 69.296875 -132.265625 L 50.855469 -144.882812 C 57.683594 -154.859375 66.734375 -162.859375 78.019531 -168.886719 C 89.375 -174.953125 102.140625 -177.984375 116.320312 -177.984375 Z M 116.320312 -133.296875 C 109.597656 -133.296875 103.847656 -132.023438 99.070312 -129.472656 C 94.222656 -126.882812 90.441406 -123.609375 87.734375 -119.652344 L 46.953125 -60.046875 L 46.953125 -154.265625 L 69.296875 -154.265625 L 69.296875 -131.921875 L 15.398438 -131.921875 L 15.398438 -154.265625 L 37.742188 -154.265625 L 37.742188 0 L 15.398438 0 L 15.398438 -22.34375 L 69.296875 -22.34375 L 69.296875 0 L 46.953125 0 L 46.953125 -82.769531 C 46.953125 -97.328125 51.179688 -109.257812 59.636719 -118.5625 C 64.242188 -123.625 69.722656 -127.425781 76.078125 -129.957031 C 81.898438 -132.277344 88.253906 -133.4375 95.144531 -133.4375 C 101.933594 -133.4375 108.21875 -132.25 114.007812 -129.871094 C 120.1875 -127.335938 125.550781 -123.566406 130.101562 -118.5625 C 138.558594 -109.257812 142.785156 -97.328125 142.785156 -82.769531 L 142.785156 0 L 120.441406 0 L 120.441406 -22.34375 L 174.339844 -22.34375 L 174.339844 0 L 151.996094 0 L 151.996094 -89.917969 C 151.996094 -104.445312 148.640625 -115.511719 141.925781 -123.109375 C 138.957031 -126.464844 135.519531 -128.960938 131.609375 -130.597656 C 127.3125 -132.398438 122.214844 -133.296875 116.320312 -133.296875 Z M 116.320312 -133.296875 "/></g></g></g><g fill="#6c0ef1" fill-opacity="1"><g transform="translate(841.641558, 288.93013)"><g><path d="M 42.621094 -146.222656 C 27.351562 -146.222656 14.699219 -150.761719 4.671875 -159.835938 C -0.574219 -164.578125 -4.558594 -170.042969 -7.28125 -176.226562 C -9.988281 -182.375 -11.34375 -188.988281 -11.34375 -196.0625 C -11.34375 -203.171875 -10.011719 -209.8125 -7.347656 -215.984375 C -4.648438 -222.238281 -0.691406 -227.769531 4.527344 -232.574219 C 14.578125 -241.828125 27.277344 -246.457031 42.621094 -246.457031 C 57.785156 -246.457031 70.390625 -241.828125 80.441406 -232.574219 C 85.660156 -227.769531 89.621094 -222.238281 92.320312 -215.984375 C 94.980469 -209.8125 96.3125 -203.171875 96.3125 -196.0625 C 96.3125 -188.988281 94.960938 -182.375 92.25 -176.226562 C 89.527344 -170.042969 85.542969 -164.578125 80.300781 -159.835938 C 70.269531 -150.761719 57.710938 -146.222656 42.621094 -146.222656 Z M 42.621094 -190.910156 C 46.234375 -190.910156 48.800781 -191.59375 50.320312 -192.96875 C 50.847656 -193.449219 51.195312 -193.875 51.359375 -194.246094 C 51.539062 -194.652344 51.628906 -195.257812 51.628906 -196.0625 C 51.628906 -197.019531 51.515625 -197.757812 51.289062 -198.28125 C 51.101562 -198.714844 50.730469 -199.1875 50.175781 -199.699219 C 48.675781 -201.078125 46.160156 -201.769531 42.621094 -201.769531 C 38.902344 -201.769531 36.292969 -201.078125 34.792969 -199.699219 C 34.238281 -199.1875 33.867188 -198.714844 33.679688 -198.28125 C 33.453125 -197.757812 33.34375 -197.019531 33.34375 -196.0625 C 33.34375 -195.257812 33.433594 -194.652344 33.613281 -194.246094 C 33.773438 -193.875 34.121094 -193.449219 34.652344 -192.96875 C 36.171875 -191.59375 38.828125 -190.910156 42.621094 -190.910156 Z M 91.640625 -154.265625 L 91.640625 22.34375 L -6.945312 22.34375 L -6.945312 -176.609375 L 91.640625 -176.609375 Z M 46.953125 -154.265625 L 69.296875 -154.265625 L 69.296875 -131.921875 L 15.398438 -131.921875 L 15.398438 -154.265625 L 37.742188 -154.265625 L 37.742188 0 L 15.398438 0 L 15.398438 -22.34375 L 69.296875 -22.34375 L 69.296875 0 L 46.953125 0 Z M 46.953125 -154.265625 "/></g></g></g><g fill="#6c0ef1" fill-opacity="1"><g transform="translate(926.336619, 288.93013)"><g><path d="M 128.761719 -45.921875 L 128.761719 22.34375 L 83.046875 22.34375 C 57.210938 22.34375 37.1875 15.304688 22.980469 1.230469 C 8.714844 -12.902344 1.582031 -32.835938 1.582031 -58.570312 L 1.582031 -109.445312 L 23.921875 -109.445312 L 23.921875 -87.101562 L -17.394531 -87.101562 L -17.394531 -176.609375 L 23.921875 -176.609375 L 23.921875 -154.265625 L 1.582031 -154.265625 L 1.582031 -214.007812 L 100.4375 -214.007812 L 100.4375 -154.265625 L 78.09375 -154.265625 L 78.09375 -176.609375 L 128.488281 -176.609375 L 128.488281 -87.101562 L 78.09375 -87.101562 L 78.09375 -109.445312 L 100.4375 -109.445312 L 100.4375 -57.746094 L 100.425781 -57.75 C 100.371094 -58.148438 100.265625 -58.59375 100.109375 -59.089844 C 99.433594 -61.214844 98.195312 -63.136719 96.390625 -64.851562 C 94.679688 -66.484375 92.855469 -67.570312 90.925781 -68.117188 C 90.601562 -68.207031 90.34375 -68.261719 90.152344 -68.285156 C 90.269531 -68.273438 90.46875 -68.265625 90.746094 -68.265625 L 128.761719 -68.265625 Z M 84.074219 -45.921875 L 106.417969 -45.921875 L 106.417969 -23.578125 L 90.746094 -23.578125 C 80.203125 -23.578125 71.8125 -26.550781 65.574219 -32.492188 C 59.027344 -38.730469 55.753906 -47.148438 55.753906 -57.746094 L 55.753906 -131.785156 L 106.144531 -131.785156 L 106.144531 -109.445312 L 83.800781 -109.445312 L 83.800781 -154.265625 L 106.144531 -154.265625 L 106.144531 -131.921875 L 55.753906 -131.921875 L 55.753906 -191.664062 L 78.09375 -191.664062 L 78.09375 -169.320312 L 23.921875 -169.320312 L 23.921875 -191.664062 L 46.265625 -191.664062 L 46.265625 -131.921875 L 4.949219 -131.921875 L 4.949219 -154.265625 L 27.292969 -154.265625 L 27.292969 -109.445312 L 4.949219 -109.445312 L 4.949219 -131.785156 L 46.265625 -131.785156 L 46.265625 -58.570312 C 46.265625 -45.257812 48.988281 -35.90625 54.429688 -30.515625 C 59.929688 -25.066406 69.46875 -22.34375 83.046875 -22.34375 L 106.417969 -22.34375 L 106.417969 0 L 84.074219 0 Z M 84.074219 -45.921875 "/></g></g></g><g fill="#6c0ef1" fill-opacity="1"><g transform="translate(1042.107781, 288.93013)"><g><path d="M 41.523438 24.542969 C 26.25 24.542969 13.601562 20.003906 3.570312 10.929688 C -1.703125 6.160156 -5.703125 0.636719 -8.425781 -5.636719 C -11.105469 -11.796875 -12.445312 -18.445312 -12.445312 -25.574219 C -12.445312 -32.683594 -11.113281 -39.324219 -8.449219 -45.492188 C -5.75 -51.75 -1.789062 -57.28125 3.429688 -62.085938 C 13.480469 -71.339844 26.175781 -75.964844 41.523438 -75.964844 C 56.683594 -75.964844 69.289062 -71.339844 79.34375 -62.085938 C 84.5625 -57.28125 88.519531 -51.75 91.21875 -45.492188 C 93.882812 -39.324219 95.214844 -32.683594 95.214844 -25.574219 C 95.214844 -18.515625 93.867188 -11.910156 91.175781 -5.757812 C 88.476562 0.410156 84.53125 5.882812 79.34375 10.664062 C 69.289062 19.917969 56.683594 24.542969 41.523438 24.542969 Z M 41.523438 -20.144531 C 45.058594 -20.144531 47.578125 -20.832031 49.074219 -22.210938 C 49.660156 -22.75 50.046875 -23.234375 50.234375 -23.667969 C 50.429688 -24.113281 50.527344 -24.746094 50.527344 -25.574219 C 50.527344 -26.53125 50.414062 -27.269531 50.191406 -27.789062 C 50.003906 -28.226562 49.632812 -28.699219 49.074219 -29.210938 C 47.578125 -30.589844 45.058594 -31.277344 41.523438 -31.277344 C 37.800781 -31.277344 35.191406 -30.589844 33.695312 -29.210938 C 33.140625 -28.699219 32.765625 -28.226562 32.578125 -27.789062 C 32.355469 -27.269531 32.242188 -26.53125 32.242188 -25.574219 C 32.242188 -24.636719 32.347656 -23.925781 32.558594 -23.441406 C 32.71875 -23.070312 33.050781 -22.660156 33.550781 -22.207031 C 35.070312 -20.832031 37.726562 -20.144531 41.523438 -20.144531 Z M 41.523438 -20.144531 "/></g></g></g><g fill="#6c0ef1" fill-opacity="1"><g transform="translate(1124.877927, 288.93013)"><g><path d="M 42.621094 -146.222656 C 27.351562 -146.222656 14.699219 -150.761719 4.671875 -159.835938 C -0.574219 -164.578125 -4.558594 -170.042969 -7.28125 -176.226562 C -9.988281 -182.375 -11.34375 -188.988281 -11.34375 -196.0625 C -11.34375 -203.171875 -10.011719 -209.8125 -7.347656 -215.984375 C -4.648438 -222.238281 -0.691406 -227.769531 4.527344 -232.574219 C 14.578125 -241.828125 27.277344 -246.457031 42.621094 -246.457031 C 57.785156 -246.457031 70.390625 -241.828125 80.441406 -232.574219 C 85.660156 -227.769531 89.621094 -222.238281 92.320312 -215.984375 C 94.980469 -209.8125 96.3125 -203.171875 96.3125 -196.0625 C 96.3125 -188.988281 94.960938 -182.375 92.25 -176.226562 C 89.527344 -170.042969 85.542969 -164.578125 80.300781 -159.835938 C 70.269531 -150.761719 57.710938 -146.222656 42.621094 -146.222656 Z M 42.621094 -190.910156 C 46.234375 -190.910156 48.800781 -191.59375 50.320312 -192.96875 C 50.847656 -193.449219 51.195312 -193.875 51.359375 -194.246094 C 51.539062 -194.652344 51.628906 -195.257812 51.628906 -196.0625 C 51.628906 -197.019531 51.515625 -197.757812 51.289062 -198.28125 C 51.101562 -198.714844 50.730469 -199.1875 50.175781 -199.699219 C 48.675781 -201.078125 46.160156 -201.769531 42.621094 -201.769531 C 38.902344 -201.769531 36.292969 -201.078125 34.792969 -199.699219 C 34.238281 -199.1875 33.867188 -198.714844 33.679688 -198.28125 C 33.453125 -197.757812 33.34375 -197.019531 33.34375 -196.0625 C 33.34375 -195.257812 33.433594 -194.652344 33.613281 -194.246094 C 33.773438 -193.875 34.121094 -193.449219 34.652344 -192.96875 C 36.171875 -191.59375 38.828125 -190.910156 42.621094 -190.910156 Z M 91.640625 -154.265625 L 91.640625 22.34375 L -6.945312 22.34375 L -6.945312 -176.609375 L 91.640625 -176.609375 Z M 46.953125 -154.265625 L 69.296875 -154.265625 L 69.296875 -131.921875 L 15.398438 -131.921875 L 15.398438 -154.265625 L 37.742188 -154.265625 L 37.742188 0 L 15.398438 0 L 15.398438 -22.34375 L 69.296875 -22.34375 L 69.296875 0 L 46.953125 0 Z M 46.953125 -154.265625 "/></g></g></g><g fill="#6c0ef1" fill-opacity="1"><g transform="translate(1209.572947, 288.93013)"><g><path d="M 116.320312 -177.984375 C 128.203125 -177.984375 139.054688 -175.929688 148.875 -171.816406 C 159.078125 -167.539062 167.921875 -161.167969 175.40625 -152.699219 C 189.589844 -136.652344 196.683594 -115.722656 196.683594 -89.917969 L 196.683594 22.34375 L 98.101562 22.34375 L 98.101562 -82.769531 C 98.101562 -84.769531 97.90625 -86.355469 97.515625 -87.535156 C 97.363281 -87.996094 97.203125 -88.320312 97.035156 -88.503906 L 97.042969 -88.535156 C 96.6875 -88.679688 96.054688 -88.75 95.144531 -88.75 C 93.96875 -88.75 93.128906 -88.648438 92.625 -88.449219 C 92.65625 -88.460938 92.683594 -88.480469 92.703125 -88.503906 C 92.535156 -88.320312 92.378906 -87.996094 92.226562 -87.535156 C 91.835938 -86.355469 91.640625 -84.769531 91.640625 -82.769531 L 91.640625 22.34375 L -6.945312 22.34375 L -6.945312 -176.609375 L 91.640625 -176.609375 L 91.640625 -132.265625 L 69.296875 -132.265625 L 50.855469 -144.882812 C 57.683594 -154.859375 66.734375 -162.859375 78.019531 -168.886719 C 89.375 -174.953125 102.140625 -177.984375 116.320312 -177.984375 Z M 116.320312 -133.296875 C 109.597656 -133.296875 103.847656 -132.023438 99.070312 -129.472656 C 94.222656 -126.882812 90.441406 -123.609375 87.734375 -119.652344 L 46.953125 -60.046875 L 46.953125 -154.265625 L 69.296875 -154.265625 L 69.296875 -131.921875 L 15.398438 -131.921875 L 15.398438 -154.265625 L 37.742188 -154.265625 L 37.742188 0 L 15.398438 0 L 15.398438 -22.34375 L 69.296875 -22.34375 L 69.296875 0 L 46.953125 0 L 46.953125 -82.769531 C 46.953125 -97.328125 51.179688 -109.257812 59.636719 -118.5625 C 64.242188 -123.625 69.722656 -127.425781 76.078125 -129.957031 C 81.898438 -132.277344 88.253906 -133.4375 95.144531 -133.4375 C 101.933594 -133.4375 108.21875 -132.25 114.007812 -129.871094 C 120.1875 -127.335938 125.550781 -123.566406 130.101562 -118.5625 C 138.558594 -109.257812 142.785156 -97.328125 142.785156 -82.769531 L 142.785156 0 L 120.441406 0 L 120.441406 -22.34375 L 174.339844 -22.34375 L 174.339844 0 L 151.996094 0 L 151.996094 -89.917969 C 151.996094 -104.445312 148.640625 -115.511719 141.925781 -123.109375 C 138.957031 -126.464844 135.519531 -128.960938 131.609375 -130.597656 C 127.3125 -132.398438 122.214844 -133.296875 116.320312 -133.296875 Z M 116.320312 -133.296875 "/></g></g></g><g fill="#000000" fill-opacity="1"><g transform="translate(272.699803, 288.93013)"><g><path d="M 139.140625 -99.546875 C 150.503906 -96.972656 159.53125 -91.332031 166.21875 -82.625 C 172.914062 -73.925781 176.265625 -63.984375 176.265625 -52.796875 C 176.265625 -36.296875 170.582031 -23.367188 159.21875 -14.015625 C 147.851562 -4.671875 131.90625 0 111.375 0 L 15.40625 0 L 15.40625 -193.859375 L 108.34375 -193.859375 C 128.144531 -193.859375 143.679688 -189.457031 154.953125 -180.65625 C 166.222656 -171.863281 171.859375 -159.492188 171.859375 -143.546875 C 171.859375 -132.179688 168.878906 -122.691406 162.921875 -115.078125 C 156.960938 -107.472656 149.035156 -102.296875 139.140625 -99.546875 Z M 69.296875 -116.875 L 96.515625 -116.875 C 110.085938 -116.875 116.875 -122.460938 116.875 -133.640625 C 116.875 -145.191406 110.085938 -150.96875 96.515625 -150.96875 L 69.296875 -150.96875 Z M 100.640625 -43.453125 C 114.210938 -43.453125 121 -49.132812 121 -60.5 C 121 -66.363281 119.207031 -70.851562 115.625 -73.96875 C 112.050781 -77.082031 106.96875 -78.640625 100.375 -78.640625 L 69.296875 -78.640625 L 69.296875 -43.453125 Z M 100.640625 -43.453125 "/></g></g></g><g fill="#000000" fill-opacity="1"><g transform="translate(457.214024, 288.93013)"><g><path d="M 68.203125 -193.859375 L 68.203125 -81.390625 C 68.203125 -70.941406 70.628906 -62.875 75.484375 -57.1875 C 80.335938 -51.507812 87.71875 -48.671875 97.625 -48.671875 C 107.519531 -48.671875 114.988281 -51.554688 120.03125 -57.328125 C 125.070312 -63.109375 127.59375 -71.128906 127.59375 -81.390625 L 127.59375 -193.859375 L 181.484375 -193.859375 L 181.484375 -81.390625 C 181.484375 -63.609375 177.722656 -48.4375 170.203125 -35.875 C 162.691406 -23.320312 152.472656 -13.882812 139.546875 -7.5625 C 126.628906 -1.238281 112.285156 1.921875 96.515625 1.921875 C 80.753906 1.921875 66.6875 -1.238281 54.3125 -7.5625 C 41.9375 -13.882812 32.21875 -23.28125 25.15625 -35.75 C 18.101562 -48.21875 14.578125 -63.429688 14.578125 -81.390625 L 14.578125 -193.859375 Z M 68.203125 -193.859375 "/></g></g></g><g fill="#000000" fill-opacity="1"><g transform="translate(653.002562, 288.93013)"><g><path d="M 116.3125 -155.640625 C 134.09375 -155.640625 148.207031 -149.726562 158.65625 -137.90625 C 169.113281 -126.082031 174.34375 -110.085938 174.34375 -89.921875 L 174.34375 0 L 120.4375 0 L 120.4375 -82.765625 C 120.4375 -91.566406 118.144531 -98.488281 113.5625 -103.53125 C 108.976562 -108.570312 102.835938 -111.09375 95.140625 -111.09375 C 87.078125 -111.09375 80.753906 -108.570312 76.171875 -103.53125 C 71.585938 -98.488281 69.296875 -91.566406 69.296875 -82.765625 L 69.296875 0 L 15.40625 0 L 15.40625 -154.265625 L 69.296875 -154.265625 L 69.296875 -132.265625 C 74.066406 -139.234375 80.484375 -144.867188 88.546875 -149.171875 C 96.609375 -153.484375 105.863281 -155.640625 116.3125 -155.640625 Z M 116.3125 -155.640625 "/></g></g></g><g fill="#000000" fill-opacity="1"><g transform="translate(841.641558, 288.93013)"><g><path d="M 42.625 -168.5625 C 33.09375 -168.5625 25.4375 -171.171875 19.65625 -176.390625 C 13.882812 -181.617188 11 -188.175781 11 -196.0625 C 11 -204.125 13.882812 -210.8125 19.65625 -216.125 C 25.4375 -221.445312 33.09375 -224.109375 42.625 -224.109375 C 51.96875 -224.109375 59.523438 -221.445312 65.296875 -216.125 C 71.078125 -210.8125 73.96875 -204.125 73.96875 -196.0625 C 73.96875 -188.175781 71.078125 -181.617188 65.296875 -176.390625 C 59.523438 -171.171875 51.96875 -168.5625 42.625 -168.5625 Z M 69.296875 -154.265625 L 69.296875 0 L 15.40625 0 L 15.40625 -154.265625 Z M 69.296875 -154.265625 "/></g></g></g><g fill="#000000" fill-opacity="1"><g transform="translate(926.336619, 288.93013)"><g><path d="M 106.421875 -45.921875 L 106.421875 0 L 83.046875 0 C 43.628906 0 23.921875 -19.523438 23.921875 -58.578125 L 23.921875 -109.4375 L 4.953125 -109.4375 L 4.953125 -154.265625 L 23.921875 -154.265625 L 23.921875 -191.671875 L 78.09375 -191.671875 L 78.09375 -154.265625 L 106.140625 -154.265625 L 106.140625 -109.4375 L 78.09375 -109.4375 L 78.09375 -57.75 C 78.09375 -53.53125 79.054688 -50.503906 80.984375 -48.671875 C 82.910156 -46.835938 86.164062 -45.921875 90.75 -45.921875 Z M 106.421875 -45.921875 "/></g></g></g><g fill="#ffffff" fill-opacity="1"><g transform="translate(1042.107781, 288.93013)"><g><path d="M 41.515625 2.203125 C 31.984375 2.203125 24.332031 -0.40625 18.5625 -5.625 C 12.789062 -10.851562 9.90625 -17.503906 9.90625 -25.578125 C 9.90625 -33.640625 12.789062 -40.328125 18.5625 -45.640625 C 24.332031 -50.960938 31.984375 -53.625 41.515625 -53.625 C 50.867188 -53.625 58.429688 -50.960938 64.203125 -45.640625 C 69.984375 -40.328125 72.875 -33.640625 72.875 -25.578125 C 72.875 -17.691406 69.984375 -11.085938 64.203125 -5.765625 C 58.429688 -0.453125 50.867188 2.203125 41.515625 2.203125 Z M 41.515625 2.203125 "/></g></g></g><g fill="#ffffff" fill-opacity="1"><g transform="translate(1124.877927, 288.93013)"><g><path d="M 42.625 -168.5625 C 33.09375 -168.5625 25.4375 -171.171875 19.65625 -176.390625 C 13.882812 -181.617188 11 -188.175781 11 -196.0625 C 11 -204.125 13.882812 -210.8125 19.65625 -216.125 C 25.4375 -221.445312 33.09375 -224.109375 42.625 -224.109375 C 51.96875 -224.109375 59.523438 -221.445312 65.296875 -216.125 C 71.078125 -210.8125 73.96875 -204.125 73.96875 -196.0625 C 73.96875 -188.175781 71.078125 -181.617188 65.296875 -176.390625 C 59.523438 -171.171875 51.96875 -168.5625 42.625 -168.5625 Z M 69.296875 -154.265625 L 69.296875 0 L 15.40625 0 L 15.40625 -154.265625 Z M 69.296875 -154.265625 "/></g></g></g><g fill="#ffffff" fill-opacity="1"><g transform="translate(1209.572947, 288.93013)"><g><path d="M 116.3125 -155.640625 C 134.09375 -155.640625 148.207031 -149.726562 158.65625 -137.90625 C 169.113281 -126.082031 174.34375 -110.085938 174.34375 -89.921875 L 174.34375 0 L 120.4375 0 L 120.4375 -82.765625 C 120.4375 -91.566406 118.144531 -98.488281 113.5625 -103.53125 C 108.976562 -108.570312 102.835938 -111.09375 95.140625 -111.09375 C 87.078125 -111.09375 80.753906 -108.570312 76.171875 -103.53125 C 71.585938 -98.488281 69.296875 -91.566406 69.296875 -82.765625 L 69.296875 0 L 15.40625 0 L 15.40625 -154.265625 L 69.296875 -154.265625 L 69.296875 -132.265625 C 74.066406 -139.234375 80.484375 -144.867188 88.546875 -149.171875 C 96.609375 -153.484375 105.863281 -155.640625 116.3125 -155.640625 Z M 116.3125 -155.640625 "/></g></g></g><path fill="#000000" d="M 235.394531 101.773438 C 212.8125 79.234375 176.070312 79.234375 153.503906 101.773438 L 125.769531 129.453125 C 121.625 133.589844 121.625 140.289062 125.769531 144.425781 C 129.910156 148.5625 136.625 148.5625 140.769531 144.425781 L 168.503906 116.75 C 203.855469 83.597656 253.679688 133.316406 220.394531 168.546875 C 220.394531 168.546875 187.984375 200.90625 187.984375 200.90625 C 171.574219 217.730469 142.28125 214.082031 130.539062 193.761719 C 127.550781 188.722656 121.039062 187.078125 116.003906 190.054688 C 104.914062 197.035156 114.359375 209.429688 121.085938 215.878906 C 132.375 227.148438 147.203125 232.78125 162.03125 232.78125 C 176.867188 232.78125 191.691406 227.148438 202.984375 215.878906 L 235.394531 183.527344 C 257.871094 162 257.882812 123.296875 235.394531 101.773438 Z M 235.394531 101.773438 " fill-opacity="1" fill-rule="nonzero"/><path fill="#000000" d="M 144.746094 244.066406 L 117.011719 271.746094 C 81.921875 304.996094 31.804688 254.996094 65.121094 219.945312 C 65.121094 219.945312 97.527344 187.585938 97.527344 187.585938 C 113.914062 170.796875 143.160156 174.375 154.917969 194.667969 C 157.902344 199.707031 164.421875 201.367188 169.449219 198.375 C 180.519531 191.4375 171.117188 179.011719 164.425781 172.613281 C 141.84375 150.070312 105.113281 150.085938 82.53125 172.613281 C 82.53125 172.613281 50.121094 204.972656 50.121094 204.972656 C 13.632812 240.886719 40.390625 304.210938 91.066406 303.621094 C 105.890625 303.621094 120.726562 297.988281 132.011719 286.71875 L 159.746094 259.039062 C 169.429688 249.019531 154.777344 234.394531 144.746094 244.066406 Z M 144.746094 244.066406 " fill-opacity="1" fill-rule="nonzero"/></g></g></svg>